<svg width="19" height="11" viewBox="0 0 19 11" fill="none" xmlns="http://www.w3.org/2000/svg">
<path d="M9.4983 10.2107C6.08839 10.2107 2.8306 8.94308 0.308032 6.63601C0.07986 6.43319 -0.0215496 6.12896 0.00380288 5.8374C0.168594 4.32893 1.10663 2.92187 2.66581 1.88242C6.44333 -0.627473 12.5659 -0.627473 16.3308 1.88242C17.89 2.93455 18.828 4.32893 18.9928 5.8374C19.0308 6.14163 18.9167 6.43319 18.6886 6.63601C16.166 8.94308 12.9082 10.2107 9.4983 10.2107ZM1.99397 5.58388C4.09822 7.34587 6.74756 8.30927 9.4983 8.30927C12.249 8.30927 14.8984 7.34587 17.0026 5.58388C16.7745 4.81063 16.166 4.06273 15.266 3.45427C12.1476 1.37537 6.86164 1.37537 3.71794 3.45427C2.81793 4.06273 2.22214 4.81063 1.99397 5.58388Z" fill="#292D32"/>
</svg>
