<svg width="11" height="11" viewBox="0 0 11 11" fill="none" xmlns="http://www.w3.org/2000/svg">
<path d="M5.65012 10.9864C5.62283 10.9864 5.58189 10.9864 5.55459 10.9864C5.51365 10.9864 5.45906 10.9864 5.41811 10.9864C2.3201 10.8908 0 8.47519 0 5.5C0 2.47022 2.47022 0 5.5 0C8.52978 0 11 2.47022 11 5.5C10.9864 8.48884 8.65261 10.8908 5.69107 10.9864C5.66377 10.9864 5.66377 10.9864 5.65012 10.9864ZM5.48635 2.0335C3.57568 2.0335 2.0335 3.58933 2.0335 5.48635C2.0335 7.35608 3.4938 8.87097 5.34988 8.93921C5.39082 8.92556 5.5273 8.92556 5.66377 8.93921C7.49256 8.84367 8.92556 7.34243 8.93921 5.48635C8.93921 3.58933 7.39702 2.0335 5.48635 2.0335Z" fill="#292D32"/>
</svg>
